<?xml version="1.0" encoding="utf-8"?>
<!-- Generator: Adobe Illustrator 20.1.0, SVG Export Plug-In . SVG Version: 6.00 Build 0)  -->
<svg version="1.1" id="Camada_1" xmlns="http://www.w3.org/2000/svg" xmlns:xlink="http://www.w3.org/1999/xlink" x="0px" y="0px"
	 viewBox="0 0 612 210" style="enable-background:new 0 0 612 210;" xml:space="preserve">
<style type="text/css">
	.st0{fill:#FDFDFB;}
</style>
<g id="XMLID_6_">
	<path id="XMLID_20_" class="st0" d="M152.5,54.9c0.3,0.1,0.6,0.4,0.7,0.9l-0.3,3.4l-0.2,0.5c0.1,0.5,0.1,0.8,0,1v1.9l-0.2,0.7v1.7
		c-0.1,0.1-0.2,0.6-0.2,1.4l-0.2,1.9l-0.2,1l-0.3,5.5l-0.2,1l0.2,1c-0.1,0.8-0.1,1.8,0,2.9l-0.2,1c1,0.7,2.3,0.9,3.8,0.7
		c1.1,0.5,2.6,0.6,4.3,0.3l1.5,0.2h2.9l1-0.2l0.3-2.1v-1l0.2-0.7v-1.2l0.2-0.5v-2.6c0.1-0.7,0.2-1.5,0.3-2.3
		c0.1-0.9,0.1-1.8,0.1-2.8v-4.1c-2.2-1.3-4.6-1.4-7.4-0.5c-0.1,0-0.2-0.1-0.3-0.3c3.7-2.9,7.8-4,12.5-3.4c0.8,0.1,1.5,0.4,2.2,0.9
		c0.2,1.4,0.2,3.1,0,5.1v2.4l-0.2,0.5v1.2l-0.2,0.5c0.1,1,0.1,2.3-0.2,3.8l-0.2,1.2c-0.2,0.9-0.3,1.7-0.3,2.2l-0.2,0.5v1l-0.3,1.2
		v0.7c4.9,0.2,8.2-2.2,9.8-7.2l0.5-0.2c-0.1,1.4-0.6,3-1.4,5l-3.9,2.6l-0.9,0.5l-0.5,0.3l-2.1,1l-1,0.3l-0.9,0.9
		c-0.2,0.8-0.3,1.8-0.3,3.1l-0.3,1.2v1.2l-0.2,1c0,0.5-0.1,1-0.2,1.7v0.5c-0.1,0.1-0.2,0.5-0.2,1.2l-0.2,0.7c0.1,0.8,0.1,1.4,0,1.7
		c-0.1,0.3-0.2,0.7-0.2,1.2l-0.2,0.9l-0.2,1.2l-0.5,2.4c-0.3,0.8-0.9,1.6-1.5,2.4l-0.2,0.3c2.2,0.8,4.6,1,7.2,0.7l0.5,0.5
		c-4.5,3.4-9.6,4.3-15.3,2.7c0.6-0.8,1.4-1.5,2.4-2.2l0.3-0.5l0.5-3.8v-1.7l0.2-0.5l0.2-1.9V98l0.2-1l0.2-1c0-0.6,0-1,0.1-1.4
		c0.1-0.3,0.1-0.7,0.3-1v-1.7l0.2-1.9l0.2-1.2l0.2-1l0.2-1.2l-0.2-1h-4.1l-0.5-0.2l-0.5,0.2h-1.9c-0.1,0.1-0.6,0.2-1.4,0.2l-0.9-0.2
		h-1.4l-1,0.2l-0.9-0.2c-0.3,0.5-0.6,1-0.9,1.7c0.1,1.1-0.1,2.4-0.5,3.8v1.7c-0.1,1.4-0.3,2.5-0.5,3.4l-0.9,7.2v1.2
		c-0.2,1.1-0.1,1.9,0.3,2.2c0.7,0,1.4-0.2,2.1-0.5h0.3c0,0.2-0.1,0.5-0.3,0.9c-0.9,0.2-1.8,0.7-2.7,1.4c-0.2,5.4-0.5,5.5-0.9,0.3
		l-2.9,0.9l-1,0.2c-0.1,0.1-0.3,0.2-0.7,0.2c-3.7,0.8-7.4,0.7-11.3-0.3v-0.5l1.2-0.9c0.6-0.1,1.1-0.4,1.5-0.9
		c0.9-0.5,1.8-1.1,2.7-2.1c0.2-0.7,0.6-1.4,1-2.1l0.7-4.3c0.1-0.1,0.2-0.5,0.2-1.2l0.2-1.2l0.2-0.9v-2.9l0.5-3.4v-1.4
		c-1-1.3-2.5-2.1-4.3-2.4l-0.2-0.5l3.9-2.6l0.3-0.2l0.5-0.5c0.3-1,0.5-2.3,0.5-3.9v-0.5c0.1-0.6,0.2-1.3,0.2-2.1l0.3-2.4
		c0-0.8,0.1-1.8,0.2-3.1v-0.7l0.2-2.2v-0.9l0.2-1c-2.6-1.4-5.4-1.4-8.4-0.2l-0.3-0.3c4.9-4,10.1-5.1,15.6-3.3c0.1,0.9,0,1.9-0.3,3.1
		c0.1,0.5,0.1,1,0,1.5v1.4l-0.2,0.5l0.2,0.9c-0.2,0.6-0.3,1.3-0.3,2.2c-0.2,0.7-0.3,1.5-0.3,2.4l-0.2,1.5c-0.1,0.7-0.2,1.5-0.2,2.4
		l-0.2,2.2l-0.2,0.5c0.1,0.2,0.1,0.5,0,0.9c0.9,0.3,1.9,0.5,3.1,0.3c0.2-0.8,0.3-1.7,0.2-2.6c0.2-0.8,0.3-1.8,0.2-2.9l0.2-1v-1.4
		c0.2-0.7,0.3-1.5,0.3-2.4l0.2-0.9l0.2-0.5v-0.9l0.2-1.5l0.2-1c-0.1-0.7-0.1-1.5,0-2.4l0.2-1l-0.2-1c0.5-1.6,0.6-3.4,0.3-5.5
		L152.5,54.9z M150.3,86.5c-0.2-0.6-0.7-1-1.4-1.2l-2.2,0.3c-0.2,0.8-0.3,1.8-0.3,3.1l-0.3,1.2v1.2l-0.2,0.9l-0.2,2.4l-0.2,1
		l-0.2,2.9l-0.2,0.7l-0.2,0.9l-0.3,2.7c-0.6,1.4-1.5,2.5-2.7,3.4l-0.2,0.3c0.8,0.3,1.7,0.5,2.7,0.5h3.6c0.5-1.4,0.6-3,0.3-4.8
		c0.1-0.3,0.2-0.8,0.2-1.4c0-0.6,0-1.2,0.1-1.8c0.1-0.6,0.1-1.3,0.3-2l0.2-0.7l0.3-2.7l0.2-1v-0.7l0.2-0.9l0.3-3.4L150.3,86.5z"/>
	<path id="XMLID_23_" class="st0" d="M186.7,81.9c0.4,0.2,0.9,0.5,1.3,0.9c0.2,0.4,0.4,0.9,0.8,1.3l0.1,0.4
		c2.4,3.1,3.6,6.8,3.6,11.3c-0.5,3.8-2.3,7.3-5.4,10.4l0.1,1l-0.6,0.6c-0.2,0.4-0.6,0.9-1.2,1.3c-0.3,0.4-0.6,0.9-1,1.4l-0.8,0.5
		c-0.3,0-0.7-0.1-1-0.4c-5.6-6-6.9-13-3.8-21.1c0.4-0.9,1.1-1.7,2-2.4l1.9-1.8l0.3-0.4c0.3-0.4,0.8-0.8,1.3-1l0.3-0.3
		c0.5-0.3,1.1-0.9,1.8-1.5L186.7,81.9z M186.6,105.5c3.1-6.7,1.9-13.1-3.6-19.2c-2.7,6-2,12,2.2,18
		C185.5,104.8,186,105.2,186.6,105.5z"/>
	<path id="XMLID_26_" class="st0" d="M204.9,69.6c0.6-0.2,0.9,0,0.8,0.5c-0.9,1.5-1.5,3.4-1.8,5.6l-0.8,2.7v0.4l-0.3,0.3v0.4
		c-0.2,0.6-0.3,1.3-0.4,2c-0.4,0.8-0.7,1.7-0.8,2.7l-0.5,1.8l-0.1,0.8v0.4c-1.4,4.3-1.5,8.9-0.5,14v0.8c0.3,0.4,0.6,1,0.6,1.7
		c0.1,0.3,0.3,0.6,0.5,1l0.1,0.4c0.3,0.6,0.6,1.2,1,1.8l0.1,0.3v0.5c-0.9,1.4-2.3,2.5-4.1,3.5c-0.5-0.3-0.9-0.8-1.3-1.4l-0.5-1.4
		l-0.5-0.8c-0.2-0.6-0.3-1.1-0.5-1.4l-0.4-1.4l-0.4-1c0-0.7-0.1-1.5-0.3-2.3v-1.4l-0.1-0.4V98l0.1-1.4c0.1-0.7,0.1-1.3,0.1-1.8v-0.4
		c0.2-0.5,0.3-1.1,0.4-1.8v-0.8l0.4-0.9c0.1-1.3,0.4-2.9,0.9-5c0.1-0.5,0.2-0.9,0.3-1.2c0.1-0.3,0.1-0.6,0.1-0.9l0.3-0.4
		c0.1-0.9,0.2-1.7,0.4-2.2l0.3-1c0.2-0.5,0.3-1.2,0.4-2c-1.2-1.4-2.7-1.8-4.5-1.4c-0.2,0-0.3-0.1-0.4-0.3c0.5-0.3,1.1-0.6,1.8-1.2
		l0.9-0.5c1.8-0.6,3.4-1.6,4.9-3.1l0.8-0.5l0.3-0.3l0.6-0.4C203.4,70.5,204.1,70.1,204.9,69.6z"/>
	<path id="XMLID_28_" class="st0" d="M203.9,98.7c-0.3-7.6,3.4-13.1,11.1-16.6c0.6,0,1.3,0.1,2,0.3c0.5,0,1.1,0.1,1.7,0.3l0.4,0.1
		c0.5,0,1.1-0.1,1.8-0.4l0.3,0.1l-0.5,0.8c0,0.3-0.1,0.7-0.4,1l-0.9,3.2l-0.1,0.5c-0.1,0.9-0.2,1.5-0.4,2v0.4
		c-0.2,0.9-0.3,1.9-0.3,3.2l-0.1,0.5v0.8l-0.1,0.4v2c-0.1,0.3-0.1,0.8-0.1,1.3l0.1,2.6l0.1,0.8l0.1,0.4v0.9l0.6,2l0.4,0.5
		c1.1-0.4,2-1.4,2.8-2.9l0.3,1.3c-0.4,0.8-1.1,1.6-1.9,2.4l-0.8,0.8c-0.5,0.8-1.2,1.5-2,2.2c-0.3,0.4-0.6,0.9-1.2,1.4h-0.8
		c-1.6-2.8-2.3-6-2.2-9.6l-0.3-0.8l-1.4,2.8c-0.3,0.4-0.7,1-1,1.7c-0.3,0.7-0.4,1.3-0.5,1.8l-1,1.4l-0.6,1.2c-0.5,0.4-0.9,0.8-1,1.2
		l-0.3,0.3c-0.9-0.3-1.5-0.9-1.8-1.8C204.5,106,203.8,102.6,203.9,98.7z M215.7,87.1c-0.7-1-1.8-1.5-3.2-1.3
		c-0.9,0.2-1.7,0.6-2.4,1.3c-2.2,4.9-2.4,10.4-0.6,16.4c0.2,0.3,0.5,0.7,1,1c2.2-3.2,3.5-7.1,3.8-11.6l0.5-1.9v-0.4l0.3-0.6l0.1-0.9
		l0.1-0.6C215.4,88,215.5,87.5,215.7,87.1z"/>
	<path id="XMLID_31_" class="st0" d="M226.4,81.9c1.7,0.7,2.6,2.3,2.7,4.7c0.3-0.2,0.7-0.4,1-0.8l0.3-0.1c0.3-0.4,0.8-0.9,1.4-1.3
		l0.3-0.3c0.6-0.6,1.5-1.2,2.6-1.9l0.3-0.1h0.6c1.7,1.2,2.7,3,2.9,5.4c0.3-0.2,0.7-0.4,1-0.8l0.3-0.1c0.3-0.4,0.8-0.9,1.4-1.3
		l0.3-0.3c0.6-0.6,1.5-1.2,2.6-1.9l0.3-0.1h0.6c1.3,1,2.2,2.4,2.7,4.2l0.1,3.2c0,0.8-0.1,1.7-0.4,2.7l-0.1,0.8v0.4l-0.3,0.9
		l-0.1,0.3c0,0.9-0.2,1.9-0.5,3.2l-0.1,2l-0.1,0.4c-0.1,0.9,0,2,0.3,3.2v0.8c0.7,0.9,1.4,0.8,2.2-0.1c0.1,0.3,0.1,0.6,0.1,1
		c-0.3,0.3-0.9,1.2-1.8,2.4l-0.6,0.8l-0.1,0.4c-0.2,0.1-0.3,0.2-0.5,0.4c-0.2,0.2-0.3,0.4-0.4,0.6l-1,1.2c-0.3,0-0.7-0.1-1-0.4
		l-1.2-2.3c-0.2-0.9-0.3-1.9-0.3-3.2v-0.4c0-0.4,0-0.9,0.1-1.5c-0.1-0.5,0-1.1,0.1-1.7v-1.2l0.3-1v-0.4l0.3-0.9l0.4-1.9l0.1-0.3
		c0-0.7,0-1.5,0.1-2.6l-0.1-0.8l-0.1-2.7c-0.3-1.2-1-2.3-1.9-3.3c-0.6,0.3-1.1,0.8-1.5,1.4l-1.4,3.8l-0.1,1c-0.2,0.4-0.3,1-0.3,1.7
		c-0.2,0.6-0.3,1.2-0.3,1.8c-0.2,0.7-0.3,1.6-0.3,2.7l-0.1,0.3l-0.1,3.8l0.1,1.4c-0.1,0.8,0,1.6,0.4,2.6v0.4l-2,2l-0.5,0.6
		c-1-0.3-1.7-1.2-2.2-2.7c-0.2-0.9-0.3-1.9-0.3-3.2v-0.4c0-0.4,0-0.9,0.1-1.5c0-0.6,0.1-1.4,0.2-2.3v-0.9c0.1-0.1,0.2-0.4,0.3-0.9
		v-0.4c0.2-0.5,0.3-1.2,0.5-2.2l0.3-0.9c-0.1-0.6,0-1.2,0.1-1.9l-0.1-2.9c-0.1-0.1-0.1-0.4-0.1-0.9c-0.3-1.4-1-2.5-2.3-3.3
		c-0.5,0.5-0.9,1.2-1.3,2l-0.3,0.3l-0.4,0.6l-0.8,2.8c-0.1,0.4-0.1,0.9-0.1,1.3l-0.1,0.8l-0.1,0.9c-0.1,0.3-0.1,0.8-0.1,1.3
		l-0.3,1.5v0.4l-0.1,1.4l-0.1,0.5v2.3l0.1,0.9v1.8l0.3,1.4l0.1,0.6c-0.3,0.4-0.9,0.9-1.7,1.4l-0.4,0.6l-1.5,1.7l-0.5,0.1
		c-0.4-1-0.6-2.2-0.6-3.5L223,106v-2c0.2-0.6,0.2-1.3,0.1-2.2l0.1-0.3v-0.9l0.1-0.3c0-1,0.1-2.3,0.4-3.8l0.1-0.6v-0.4
		c0-0.8,0.1-1.8,0.3-3.2v-0.9l0.1-0.4c0-1-0.2-2.3-0.5-3.8l-0.1-0.4l-1-1.2c-0.3,0.3-0.7,0.3-1.2,0.3c0.8-0.9,1.9-1.8,3.3-2.8
		c0.2-0.3,0.5-0.5,0.9-0.8l0.4-0.1L226.4,81.9z"/>
	<path id="XMLID_33_" class="st0" d="M257.7,69.6c0.4,0.1,0.5,0.3,0.3,0.6c-0.3,0.8-0.6,1.7-0.8,2.8l-0.1,0.9l-0.1,0.4l-0.3,1.3V76
		l-0.3,0.5v0.9c-0.2,0.4-0.3,0.9-0.3,1.4l-0.1,1c0,0.4-0.1,1-0.3,1.7l-0.1,2.3l-0.1,1.4l-0.1,0.8c0.7-0.3,1.3-0.9,1.9-1.5L258,84
		l0.3-0.3l1.4-1c0.7-0.4,1.2-0.7,1.7-0.8c2.1,2.3,3.4,5.2,3.7,8.7l-0.3,1.5l-0.1,0.4c-0.3,5.8-3,10.7-8.1,14.7l-1.9,2.8
		c-0.3,0.3-0.5,0.6-0.6,0.8c-1.2-0.3-2.2-1.1-3.1-2.3l-1.3-3.1l-0.1-0.6c-0.1-0.7-0.2-1.3-0.4-1.8v-3.2c0.1-0.3,0.1-0.6,0.1-1
		l0.1-0.4l0.1-1.4v-1.2l0.1-0.5l0.1-1c0.2-0.4,0.3-1,0.3-1.7l0.1-1c0.1-0.1,0.1-0.3,0.1-0.5c0-0.8,0.1-1.8,0.4-3.2
		c0-0.6,0-1.3,0.1-2c0-0.7,0.1-1.6,0.2-2.6L251,83l0.1-1.4v-0.9l0.3-1l0.1-0.8c-0.4-1.6-1.5-2.6-3.3-2.9v-0.4c0.4-0.3,1-0.6,1.7-0.9
		l0.5-0.5l1-0.6l0.8-0.3c0.4-0.4,0.7-0.7,0.9-0.8s0.3-0.2,0.5-0.3l3.3-2.2L257.7,69.6z M256.8,106.4c4.8-6.8,5-13.5,0.6-20.1
		c-2.6,3.9-3.8,8.5-3.7,13.8l0.8,2.9l0.4,0.9c0.4,0.8,1,1.5,1.7,2.2L256.8,106.4z"/>
	<path id="XMLID_36_" class="st0" d="M272.6,83.4c0.3-0.3,0.6-0.4,0.8-0.5c0.8-0.2,1.1,0.1,1,0.9c-0.3,1-0.6,2.3-0.6,3.8l-0.1,0.8
		l-0.3,1.4v0.5l-0.1,0.5c-0.3,0.9-0.4,1.8-0.4,2.9l-0.1,1l-0.1,0.6c0.1,0.9,0,1.8-0.3,2.9v5.6l0.8,2c0.8,0.4,1.4,0.2,1.9-0.6
		l0.3,0.4c-0.4,0.7-1,1.3-1.8,1.8l-1.4,1.3l-0.3,0.1c-0.3,0.3-0.6,0.7-1,1l-0.9,0.5l-0.8,0.3c-0.8-0.9-1.2-2.1-1.3-3.5l-0.3-0.3
		l-0.1-2l0.1-0.3l-0.1-0.5v-1.8l0.1-1.4l0.1-0.9l0.1-0.8V99l0.1-1.4l0.1-0.4l0.3-1.9v-0.4l0.5-3.8v-0.4l0.1-1.4l-0.1-0.8
		c-0.7-0.4-1.6-0.6-2.7-0.5c0.7-0.8,1.7-1.5,2.9-2.2l0.3-0.1c0.7-0.8,1.6-1.4,2.7-1.9L272.6,83.4z M270.3,79.4c1.6-2.3,3.8-4,6.5-5
		c0.3-0.1,0.6,0,0.6,0.4c-0.7,1-1.7,2-3.1,2.8l-2.7,1.9l-0.6,0.5l-1,0.6l-0.8,0.4c-0.3,0.2-0.8,0.3-1.4,0.4l2-1.8L270.3,79.4z"/>
	<path id="XMLID_39_" class="st0" d="M285.1,83h1c1.5,0.9,2.2,2.2,2.2,4.1c-1.7,3-4.3,5.6-7.8,7.8l-0.6,0.9l0.1,0.9
		c-0.1,1.2,0.1,2.5,0.5,3.8c0.1,0.9,0.3,1.7,0.5,2.2c0.1,0.4,0.3,0.9,0.5,1.5v0.4c0.2,0.3,0.4,0.7,0.8,1c1.3-0.9,2.3-2.3,2.9-4h0.6
		c0,0.4-0.1,0.9-0.3,1.4c-0.5,0.6-1,1.4-1.5,2.3l-1.4,1.7l-0.3,0.4l-1.4,1.3l-1.7,2l-0.6,0.1c-2.2-3.6-3.3-7.8-3.2-12.7l-0.4-0.8
		c0.2-0.3,0.3-0.6,0.5-1c0.2-2.8,1.1-5.5,2.7-8.2c0.4-0.4,1-0.9,1.7-1.3l1.7-1.5l0.4-0.1l0.8-0.6c0.2-0.1,0.3-0.3,0.5-0.5L285.1,83z
		 M280.7,94.1c3.9-2.5,4.3-4.9,1-7.4c-1.1,2.1-1.7,4.7-1.8,7.6L280.7,94.1z"/>
	<path id="XMLID_42_" class="st0" d="M292.6,81.7c1.7,0.7,2.6,2.3,2.7,4.7l0.5-0.3c0.4-0.5,1.1-1.1,2-1.8l0.5-0.5l0.8-0.6l0.8-0.6
		l0.5-0.3l0.5-0.4h0.8c0.9,1.3,2,1.5,3.2,0.5c-1,3.2-3.5,4.4-7.4,3.6l-1.3,1.5c-2.4,5.9-3.1,12.4-2,19.5c-0.3,0.4-0.9,0.9-1.7,1.4
		l-0.4,0.6l-1.5,1.7l-0.5,0.1c-0.3-0.8-0.6-1.6-0.6-2.6l-0.1-1v-2.8l0.1-0.9c0-0.5,0-1,0.1-1.6c0-0.6,0.1-1.2,0.3-1.9v-0.5l0.3-2.8
		v-0.8l0.1-0.6c0.1-0.6,0.1-1.3,0.1-2l0.1-0.6v-4.6c-0.3-0.9-0.9-1.7-1.7-2.6c-0.3,0.3-0.7,0.3-1.2,0.3c0.8-0.9,1.9-1.8,3.3-2.8
		c0.2-0.3,0.5-0.5,0.9-0.8l0.4-0.1L292.6,81.7z"/>
	<path id="XMLID_44_" class="st0" d="M334.1,57.9c0.1-1.2,0.2-2.2,0.2-3c0.3,0.9,0.4,1.8,0.2,2.8c0.3,0,0.7,0.1,1,0.3
		c-0.9,1.2-1.2,2.6-1,4.1l0.5,0.5c5.4-0.1,9.4,2,12,6.3c1.3,4.6-1.9,9.3-9.6,14c8.9,1.3,13.2,5.8,12.9,13.4
		c-0.3,1.7-1.2,3.5-2.5,5.4l-0.7,1.2c-0.6,0.6-1.3,1.2-2.3,1.8l-0.7,0.7l-0.8,0.5l-3.1,2.1l-0.5,0.2l-1,0.7l-3.8,1.5
		c-0.3,0-0.8,0.2-1.3,0.5l-0.5,2.8v0.7l-0.2,0.5c-0.1-0.8-0.1-1.7,0-2.6c0-0.6-0.1-0.9-0.2-1.2h-1.2c-1.5,0.3-4.1,0.2-7.8-0.5
		l-1.3-0.2c-0.9-0.3-1.9-0.6-3.1-0.7l-0.5-0.2h-1c0.8-1.2,2-2.3,3.6-3.1c0.4-0.2,0.9-0.6,1.5-1.2c0-0.3,0.1-0.7,0.3-1.2l0.2-1.3
		c0.1-0.7,0.2-1.2,0.2-1.7l0.2-0.7l0.2-0.3v-2.6l0.2-0.5v-1.8c0.1-1.1,0.2-2.1,0.3-3l0.2-1.5c-0.7-1.3-2.1-2.2-4.5-2.6
		c0.4-0.6,1.1-1.2,2-1.8l1-0.8c0.6-0.6,1-1.1,1.3-1.7c0.4-1.3,0.6-2.9,0.3-4.6c0-0.8,0.1-1.8,0.2-3v-1l-0.2-0.5l0.3-3l0.2-0.8v-0.5
		l0.5-2.8l-0.5-0.8c-9,0.7-13.6,5.5-13.7,14.5l-2.8-0.2c-0.3-0.6-0.5-1.2-0.5-2c1.5-4.9,4.9-8.8,10.1-11.5c1-1,2.3-1.8,3.8-2.3
		c0.4-0.3,1-0.7,1.7-1c1.1-0.6,2.5-1,4.1-1.3c0.1-0.1,0.3-0.2,0.7-0.3l3.1-2.8l1-0.5C333.3,59.1,333.7,58.6,334.1,57.9z M333.1,87.9
		c-0.4-0.6-1-0.8-1.8-0.8c-0.3,0.2-0.6,0.6-0.8,1c0.1,6-1.7,11.7-5.4,17c0.8,0.3,1.7,0.6,2.6,0.7l2.3,0.7h0.5l2.5,0.7
		c0.2-1.1,0.3-2.5,0.2-4.1c0.1-0.1,0.2-0.3,0.2-0.7V100l-0.2-1.8v-6.1c-0.2-0.7-0.2-1.4,0-2.1l-0.2-0.8L333.1,87.9z M333.5,67.6
		c-0.3-0.2-0.8-0.3-1.3-0.3c-0.2,0.1-0.4,0.3-0.7,0.7l-0.2,4.8l-0.2,0.7v2.6c0.1,0.3,0.2,0.8,0.2,1.3l-0.2,1v2l-0.2,2.3l-0.2,0.5
		v1.7c-0.1,0.1-0.2,0.3-0.2,0.7l0.3,0.5c0.7-0.3,1.3-0.8,2-1.5v-4.3l0.2-0.5v-3l0.2-1.8v-2.3c0.1-0.1,0.2-0.3,0.2-0.7v-2.6l0.2-0.8
		L333.5,67.6z M333.3,62.2c0.4-0.6,0.5-1.2,0.2-1.8C332.6,61.3,332.5,61.9,333.3,62.2z M344.2,100c0.4-6.6-2.9-10.7-10.1-12.4
		l-0.3,0.3l-0.3,19C339.5,108.6,343.1,106.2,344.2,100z M341.6,75.2c-0.3-3.5-2.5-6-6.4-7.4c-0.4,0.3-0.7,0.9-0.8,1.7l-0.2,3.3
		l-0.3,1.2l0.2,0.5v1.3c-0.1,0.7-0.2,1.4-0.2,2.2c-0.1,0.8,0,1.7,0.1,2.7l-0.2,0.5l0.2,0.3c-0.1,0.4-0.2,1-0.2,1.7l0.2,0.8
		c0.7-0.2,1.3-0.5,2-1C339.4,81.7,341.3,79.1,341.6,75.2z"/>
	<path id="XMLID_51_" class="st0" d="M356.7,82.7c1.7,0.7,2.6,2.3,2.7,4.7l0.5-0.3c0.4-0.5,1.1-1.1,2-1.8l0.5-0.5l0.8-0.6l0.8-0.6
		l0.5-0.3L365,83h0.8c0.9,1.3,2,1.5,3.2,0.5c-1,3.2-3.5,4.4-7.4,3.6l-1.3,1.5c-2.4,5.9-3.1,12.4-2,19.5c-0.3,0.4-0.9,0.9-1.7,1.4
		l-0.4,0.6l-1.5,1.7l-0.5,0.1c-0.3-0.8-0.6-1.6-0.6-2.6l-0.1-1v-2.8l0.1-0.9c0-0.5,0-1,0.1-1.6c0-0.6,0.1-1.2,0.3-1.9v-0.5l0.3-2.8
		v-0.8l0.1-0.6c0.1-0.6,0.1-1.3,0.1-2l0.1-0.6v-4.6c-0.3-0.9-0.9-1.7-1.7-2.6c-0.3,0.3-0.7,0.3-1.2,0.3c0.8-0.9,1.9-1.8,3.3-2.8
		c0.2-0.3,0.5-0.5,0.9-0.8l0.4-0.1L356.7,82.7z"/>
	<path id="XMLID_53_" class="st0" d="M376.7,82.9c0.4,0.2,0.9,0.5,1.3,0.9c0.2,0.4,0.4,0.9,0.8,1.3l0.1,0.4
		c2.4,3.1,3.6,6.8,3.6,11.3c-0.5,3.8-2.3,7.3-5.4,10.4l0.1,1l-0.6,0.6c-0.2,0.4-0.6,0.9-1.2,1.3c-0.3,0.4-0.6,0.9-1,1.4l-0.8,0.5
		c-0.3,0-0.7-0.1-1-0.4c-5.6-6-6.9-13-3.8-21.1c0.4-0.9,1.1-1.7,2-2.4l1.9-1.8l0.3-0.4c0.3-0.4,0.8-0.8,1.3-1l0.3-0.3
		c0.5-0.3,1.1-0.9,1.8-1.5L376.7,82.9z M376.6,106.5c3.1-6.7,1.9-13.1-3.6-19.2c-2.7,6-2,12,2.2,18
		C375.5,105.8,376,106.2,376.6,106.5z"/>
	<path id="XMLID_56_" class="st0" d="M399.1,82.7c0.3,0.3,0.6,0.9,0.8,1.5c0,0.6,0.1,1.4,0.3,2.3v0.9l0.1,0.4l-0.3,5.2l-0.1,0.5v1
		l-0.8,7.2v0.8c-0.1,0.5-0.1,0.9-0.1,1.3c0,0.3,0.1,0.8,0.2,1.4l0.1,0.9c0.3,0.6,0.7,1.2,1.3,1.9c0.3-0.3,0.7-0.3,1.2-0.3
		c-0.4,0.6-1.1,1.2-1.9,1.7c-0.9,1-2,1.8-3.6,2.4c-1.3-1-1.9-2.5-1.9-4.4l-0.4-0.4c-0.4,0.3-0.9,0.6-1.3,1.2l-0.4,0.3
		c-0.4,0.4-0.7,0.7-0.9,0.8c-0.7,0.8-1.6,1.5-2.7,2l-0.3,0.3h-0.8c-0.6-0.4-1.2-1-1.7-1.8l-0.3-0.3c-1.1-3-1.2-6.3-0.1-9.9
		c0-0.4,0.1-1,0.3-1.7l-0.1-0.3l0.4-0.6c0-0.6,0-1.3,0.1-2c0.1-0.3,0.1-0.6,0.1-1l0.1-0.4V91c-0.3-2.1-1.1-2.6-2.4-1.3
		c-0.1-0.3-0.1-0.6-0.1-1c0.3-0.3,0.9-1.2,1.8-2.4l0.6-0.8l0.1-0.4c0.2-0.1,0.3-0.2,0.5-0.4c0.2-0.2,0.3-0.4,0.4-0.6l1-1.2
		c1,0.3,1.7,1.2,2.2,2.7c0.2,0.9,0.2,2.6,0.1,5.1c0.1,0.5,0,1.1-0.1,1.7v1.2l-0.3,1V95l-0.3,0.9l-0.4,1.9l-0.1,0.3l-0.1,2.8l0.1,0.8
		v1.5l0.1,0.3l0.1,1c0.3,1.3,1.1,2.3,2.2,2.9c0.5-0.5,0.9-1.2,1.3-2l0.3-0.3l0.4-0.6l0.8-2.8c0.1-0.4,0.1-0.7,0.1-0.9
		c0-0.5,0.1-1.1,0.3-1.8l0.1-1.4l0.1-0.9c0.1-0.1,0.1-0.3,0.1-0.5c-0.1-0.7,0-1.5,0.3-2.4v-0.5c0.1-0.8,0-1.7-0.1-2.8v-1.7l-0.4-2
		l0.1-0.4c0.8-0.4,1.5-1.1,2-1.9l0.5-0.4c0.1-0.3,0.3-0.6,0.8-1L399.1,82.7z"/>
	<path id="XMLID_58_" class="st0" d="M403.5,83.9c0.6-1,1.6-1.9,2.8-2.5c0.6-0.1,1.2,0,1.9,0.2c0.6,0.6,1.2,1.4,1.7,2.5l0.7,2.2
		c0.1,0.3,0.2,0.7,0.4,1.1l0.1,0.6l0.1,0.9l0.3,1l0.1,1.5c0,0.3,0,0.6,0.1,1l0.3,2.6l0.1,0.9l0.1,0.3v0.6l0.1,0.7l0.1,0.4V99
		l0.1,0.6v1.2l0.1,0.7l0.1,0.4v0.9l0.1,0.3l0.8-2.1c0.1-0.4,0.4-1,0.7-1.5c0.1-0.3,0.2-0.7,0.4-1.1c0.2-0.3,0.3-0.6,0.4-1l0.3-0.8
		l0.1-0.4l0.7-2c0.2-0.3,0.4-0.7,0.6-1.2c0.1-0.4,0.3-0.8,0.6-1.3l0.3-0.6c-0.4-2-1.4-3.8-3-5.4c-0.3,0.1-0.7,0.2-1.2,0.2v-1
		c2.8-3.6,5.2-3.8,7.2-0.7h0.1c0.2,0,0.4,0.1,0.5,0.2c-0.1,0.4,0,1,0.1,1.7c0.3,0.5,0.5,1.1,0.6,1.8l0.1,0.2l0.2,0.8
		c0,0.4,0.1,0.8,0.2,1.2c0.1,0.2,0.1,0.4,0.1,0.8l0.2,1c0.1,0.4,0.1,0.8,0.1,1.3l0.2,1l0.1,1.2l0.2,1l0.1,0.7v2.4l0.1,0.3l0.1,3.7
		l0.1,0.4c0.2-0.4,0.5-1,1-1.7l0.2-0.5l1.6-2.7l0.1-0.3c3.8-7.4,3.2-11.8-1.8-13.2c-0.3,0.1-0.7,0.1-1.2,0.1v-1.1
		c2.4-2.9,5.2-3.3,8.3-1.1c0.4,0.5,0.7,1.2,1,2.1l0.2,0.4c0.2,4.7-1.4,9.2-4.7,13.5l-0.6,1.1c-0.2,0.4-0.5,0.8-0.9,1.3l-0.4,0.5
		c-0.3,0.5-0.5,1-0.9,1.3c-0.1,0.4-0.4,0.9-0.7,1.4l-3.5,5.9l-0.2,0.5c-0.4,0.3-1,0.3-1.5,0.2c0-0.4,0-1,0.1-1.7l-0.1-0.6v-2.9
		c-0.2-1.2-0.3-2.3-0.3-3.3c-0.1-0.6-0.1-1.2-0.2-1.9l-0.1-0.5l-0.1-1.5c0-0.4-0.1-1-0.2-1.5l-0.1-0.5l-0.1-0.7l-0.1-0.8v-0.6
		l-0.2-0.8v-0.3l-0.2-0.4c-0.1,0.3-0.2,0.7-0.4,1.2l-0.3,0.8c-0.1,0.3-0.2,0.5-0.2,0.7l-0.2,0.3l-0.1,0.4c-0.5,1-0.9,1.9-1.1,2.7
		c-0.3,0.5-0.5,1.2-0.7,2c-0.1,0.3-0.3,0.6-0.4,0.8c0,0.4-0.2,1-0.5,1.5l-0.3,0.5l-0.1,0.6l-0.9,2.3l-0.3,0.6l-0.3,0.6
		c-0.1,0.2-0.2,0.4-0.3,0.8l-1.4,2.4c-0.3,0.2-0.7,0.3-1.2,0.3l-0.3-3.5c-0.2-1-0.3-1.8-0.4-2.6v-0.6l-0.1-0.5l-0.4-3.2
		c-0.1-0.4-0.1-0.7-0.1-1l-0.1-0.4c0-0.6-0.1-1.2-0.3-1.9v-0.6l-0.3-2.1l-0.2-0.7c0-0.4-0.1-1-0.2-1.7V93c-0.1-0.5-0.2-1.2-0.5-1.9
		v-0.3c-0.1-0.1-0.1-0.2-0.1-0.4L406,88l-0.3-0.7l-1.1-1.6l-0.4-0.3c-1.7,1.8-2.5,1.9-2.4,0.3C402.2,85.1,402.8,84.5,403.5,83.9z"/>
	<path id="XMLID_60_" class="st0" d="M443.3,84h1c1.5,0.9,2.2,2.2,2.2,4.1c-1.7,3-4.3,5.6-7.8,7.8l-0.6,0.9l0.1,0.9
		c-0.1,1.2,0.1,2.5,0.5,3.8c0.1,0.9,0.3,1.7,0.5,2.2c0.1,0.4,0.3,0.9,0.5,1.5v0.4c0.2,0.3,0.4,0.7,0.8,1c1.3-0.9,2.3-2.3,2.9-4h0.6
		c0,0.4-0.1,0.9-0.3,1.4c-0.5,0.6-1,1.4-1.5,2.3l-1.4,1.7l-0.3,0.4l-1.4,1.3l-1.7,2l-0.6,0.1c-2.2-3.6-3.3-7.8-3.2-12.7l-0.4-0.8
		c0.2-0.3,0.3-0.6,0.5-1c0.2-2.8,1.1-5.5,2.7-8.2c0.4-0.4,1-0.9,1.7-1.3l1.7-1.5l0.4-0.1l0.8-0.6c0.2-0.1,0.3-0.3,0.5-0.5L443.3,84z
		 M438.9,95.1c3.9-2.5,4.3-4.9,1-7.4c-1.1,2.1-1.7,4.7-1.8,7.6L438.9,95.1z"/>
	<path id="XMLID_63_" class="st0" d="M450.8,82.7c1.7,0.7,2.6,2.3,2.7,4.7l0.5-0.3c0.4-0.5,1.1-1.1,2-1.8l0.5-0.5l0.8-0.6l0.8-0.6
		l0.5-0.3l0.5-0.4h0.8c0.9,1.3,2,1.5,3.2,0.5c-1,3.2-3.5,4.4-7.4,3.6l-1.3,1.5c-2.4,5.9-3.1,12.4-2,19.5c-0.3,0.4-0.9,0.9-1.7,1.4
		l-0.4,0.6l-1.5,1.7l-0.5,0.1c-0.3-0.8-0.6-1.6-0.6-2.6l-0.1-1v-2.8l0.1-0.9c0-0.5,0-1,0.1-1.6c0-0.6,0.1-1.2,0.3-1.9v-0.5l0.3-2.8
		v-0.8l0.1-0.6c0.1-0.6,0.1-1.3,0.1-2l0.1-0.6v-4.6c-0.3-0.9-0.9-1.7-1.7-2.6c-0.3,0.3-0.7,0.3-1.2,0.3c0.8-0.9,1.9-1.8,3.3-2.8
		c0.2-0.3,0.5-0.5,0.9-0.8l0.4-0.1L450.8,82.7z"/>
	<path id="XMLID_65_" class="st0" d="M466.3,84.4c0.3-0.3,0.6-0.4,0.8-0.5c0.8-0.2,1.1,0.1,1,0.9c-0.3,1-0.6,2.3-0.6,3.8l-0.1,0.8
		l-0.3,1.4v0.5l-0.1,0.5c-0.3,0.9-0.4,1.8-0.4,2.9l-0.1,1l-0.1,0.6c0.1,0.9,0,1.8-0.3,2.9v5.6l0.8,2c0.8,0.4,1.4,0.2,1.9-0.6
		l0.3,0.4c-0.4,0.7-1,1.3-1.8,1.8l-1.4,1.3l-0.3,0.1c-0.3,0.3-0.6,0.7-1,1l-0.9,0.5l-0.8,0.3c-0.8-0.9-1.2-2.1-1.3-3.5l-0.3-0.3
		l-0.1-2l0.1-0.3l-0.1-0.5v-1.8l0.1-1.4l0.1-0.9l0.1-0.8V100l0.1-1.4l0.1-0.4l0.3-1.9v-0.4l0.5-3.8v-0.4l0.1-1.4l-0.1-0.8
		c-0.7-0.4-1.6-0.6-2.7-0.5c0.7-0.8,1.7-1.5,2.9-2.2l0.3-0.1c0.7-0.8,1.6-1.4,2.7-1.9L466.3,84.4z M464,80.4c1.6-2.3,3.8-4,6.5-5
		c0.3-0.1,0.6,0,0.6,0.4c-0.7,1-1.7,2-3.1,2.8l-2.7,1.9l-0.6,0.5l-1,0.6l-0.8,0.4c-0.3,0.2-0.8,0.3-1.4,0.4l2-1.8L464,80.4z"/>
	<path id="XMLID_68_" class="st0" d="M476.3,83.8c0.4,0.1,0.7,0.3,0.8,0.5c-0.3,0.7-0.4,1.5-0.5,2.3l-0.1,0.9l-0.1,1l-0.1,0.4
		l-0.1,1.4l-0.1,0.9l-0.1,1l-0.3,0.8l-0.1,0.6l0.1,0.5l-0.1,0.6l-0.1,0.5l-0.1,2.6l-0.1,0.4l-0.1,1.4c-0.1,0.3-0.1,0.6-0.1,1
		l-0.1,0.4l-0.3,3.7l-0.1,0.4v0.9l-0.1,0.4l-0.1,2.4c-0.1,0.1-0.1,0.3-0.1,0.5l-0.1,1.4l-0.1,1l-0.1,1.4c0,0.6-0.1,1.3-0.3,2
		l-0.1,1.4c-0.1,0.3-0.1,0.8-0.1,1.3c-0.3,0.8-0.4,1.7-0.4,2.8c-0.3,0.3-0.5,0.8-0.6,1.3l-0.4,0.9l-0.6,1c-0.6,0.6-1.4,1.2-2.3,1.9
		l-1.9,1.2l-0.4,0.4l-2.3,1.2c-0.6,0.4-1.2,0.8-1.9,1l-0.3,0.1c-0.6-0.1-1.2-0.3-1.9-0.6l-3.8-1.8l-0.4-0.1c-0.3-0.3-0.9-0.7-1.5-1
		c-0.3-0.3-0.5-0.8-0.8-1.4c0-0.5,0-1.1,0.1-1.8c1.3-2.2,3.2-4.1,5.6-5.8c0.6-0.6,1.5-1.3,2.7-2.2c0,0.3-0.2,0.7-0.5,1
		c-5.5,4.4-3.8,7.8,4.9,10.2l0.6-0.5c0.4-1,0.7-2.2,0.8-3.5l0.3-0.8l0.1-0.3c0-1,0.1-2.3,0.4-3.8c0.1-0.7,0.1-1.3,0.1-1.9l0.4-2.2
		l0.1-0.4v-0.9c0.3-0.9,0.4-1.6,0.4-2.3c0.1-0.5,0.2-0.9,0.3-1.2v-1.4l0.3-0.8l0.1-0.8c0-0.7,0-1.5,0.1-2.6c0.1-0.9,0.2-1.7,0.3-2.3
		v-0.5c0-0.6,0.1-1.3,0.3-2c0-0.5,0.1-1.1,0.3-1.7v-0.9l0.3-0.8c0-0.4,0-1,0.1-1.7l0.3-2.6l-0.1-1c-0.6-0.6-1.4-0.8-2.3-0.5
		l-0.1-0.3c0.8-0.9,1.8-1.6,3.1-2.3c0.4-0.5,1.1-1,1.9-1.4l1.9-1.3L476.3,83.8z M466.1,111.5c0.3,0,0.3,0.1,0.1,0.4l-1.9,1.7
		l-0.6,0.6c-0.5,0.3-0.9,0.6-1.3,0.6c0.6-0.8,1.4-1.5,2.4-2.2L466.1,111.5z M479.6,75.4l0.5,0.3c-2.4,3.1-5.6,5.4-9.7,6.9l1.5-1.4
		c0.5-0.3,1-0.8,1.5-1.4l0.3-0.1c0.3-0.3,0.6-0.8,0.9-1.3l1.2-1.2l2.6-1.4l1-0.3L479.6,75.4z"/>
</g>
</svg>
