<?xml version="1.0"?>
<svg width="350" height="75" xmlns="http://www.w3.org/2000/svg">
 <style type="text/css">.st0{fill:#FDFDFB;}</style>

 <g>
  <title>background</title>
  <rect fill="none" id="canvas_background" height="77" width="352" y="-1" x="-1"/>
 </g>
 <g>
  <title>Layer 1</title>
  <g id="XMLID_6_">
   <path stroke-width="2" d="m21.600021,0.149994c0.300003,0.099998 0.600006,0.399998 0.699997,0.899998l-0.300003,3.400002l-0.199995,0.5c0.100004,0.5 0.100004,0.799999 0,1l0,1.899998l-0.199999,0.700005l0,1.699999c-0.100004,0.099997 -0.199995,0.599997 -0.199995,1.4l-0.199999,1.900002l-0.200012,1l-0.299986,5.5l-0.200012,1l0.200012,1c-0.100008,0.799995 -0.100008,1.799995 0,2.899994l-0.200012,1c1,0.700005 2.300001,0.900002 3.800001,0.700005c1.100006,0.5 2.600006,0.599998 4.300003,0.299995l1.5,0.200005l2.899994,0l1,-0.200005l0.300003,-2.099998l0,-1l0.199997,-0.699993l0,-1.200008l0.200012,-0.5l0,-2.599998c0.099991,-0.699995 0.199997,-1.5 0.299988,-2.299995c0.100006,-0.900002 0.100006,-1.800003 0.100006,-2.800003l0,-4.099998c-2.199997,-1.300003 -4.600006,-1.4 -7.399994,-0.499998c-0.100006,0 -0.200012,-0.100008 -0.300003,-0.300005c3.699997,-2.899998 7.800003,-3.999999 12.5,-3.399998c0.800003,0.099998 1.5,0.399998 2.199997,0.899998c0.199997,1.400002 0.199997,3.099998 0,5.099998l0,2.400002l-0.199997,0.5l0,1.200005l-0.199997,0.5c0.099991,1 0.099991,2.299995 -0.200012,3.799995l-0.199997,1.200005c-0.199997,0.899994 -0.300003,1.699997 -0.300003,2.199997l-0.199997,0.5l0,1l-0.300003,1.199997l0,0.700005c4.900009,0.199997 8.200012,-2.200005 9.800003,-7.200005l0.5,-0.199995c-0.099991,1.4 -0.599991,2.999998 -1.399994,4.999998l-3.900009,2.599998l-0.899994,0.5l-0.5,0.300003l-2.100006,1l-1,0.299995l-0.899994,0.900002c-0.199997,0.800003 -0.300003,1.800003 -0.300003,3.099998l-0.300003,1.200005l0,1.199997l-0.199997,1c0,0.5 -0.099991,1 -0.199997,1.700005l0,0.5c-0.100006,0.099998 -0.199997,0.5 -0.199997,1.199997l-0.199997,0.699997c0.099991,0.800003 0.099991,1.400002 0,1.700005c-0.100006,0.299995 -0.200012,0.699997 -0.200012,1.199997l-0.199997,0.900002l-0.199997,1.199997l-0.5,2.400002c-0.300003,0.800003 -0.899994,1.599998 -1.5,2.400002l-0.199997,0.300003c2.199997,0.799995 4.599991,1 7.199997,0.699997l0.5,0.5c-4.5,3.400002 -9.600006,4.300011 -15.300003,2.699997c0.600006,-0.799995 1.400009,-1.5 2.400009,-2.199997l0.299988,-0.5l0.5,-3.800003l0,-1.699997l0.200012,-0.5l0.199997,-1.900002l0,-0.599998l0.199997,-1l0.199997,-1c0,-0.599998 0,-1 0.100006,-1.400002c0.099991,-0.299995 0.099991,-0.699997 0.300003,-1l0,-1.699997l0.199997,-1.900002l0.199997,-1.199997l0.199997,-1l0.199997,-1.200005l-0.199997,-1l-4.099991,0l-0.5,-0.199997l-0.5,0.199997l-1.900009,0c-0.099991,0.099998 -0.599991,0.200005 -1.399994,0.200005l-0.900009,-0.200005l-1.399994,0l-1,0.200005l-0.899992,-0.200005c-0.300003,0.5 -0.600008,1 -0.900009,1.700005c0.100004,1.099998 -0.099991,2.399994 -0.500002,3.799995l0,1.700005c-0.099991,1.399994 -0.300003,2.5 -0.499998,3.399994l-0.899996,7.200005l0,1.199997c-0.199995,1.099998 -0.100004,1.900002 0.300003,2.200005c0.699997,0 1.399994,-0.200005 2.099991,-0.5l0.300003,0c0,0.199997 -0.100004,0.5 -0.300003,0.899994c-0.899992,0.200005 -1.800001,0.700005 -2.699997,1.400002c-0.199995,5.400005 -0.5,5.500011 -0.899994,0.300003l-2.900009,0.900002l-1,0.199997c-0.099991,0.099998 -0.300003,0.199997 -0.699997,0.199997c-3.699997,0.800011 -7.399994,0.700012 -11.300003,-0.299995l0,-0.5l1.199997,-0.900002c0.600006,-0.099998 1.100006,-0.400002 1.5,-0.900002c0.900009,-0.5 1.800003,-1.099998 2.700012,-2.099998c0.199997,-0.699997 0.599991,-1.400002 1,-2.099998l0.699997,-4.300003c0.099991,-0.099998 0.199997,-0.5 0.199997,-1.199997l0.199997,-1.200005l0.199997,-0.899994l0,-2.900002l0.5,-3.400002l0,-1.400002c-1,-1.299995 -2.5,-2.099998 -4.299988,-2.400002l-0.200012,-0.5l3.900009,-2.599998l0.300003,-0.199997l0.5,-0.5c0.299988,-1 0.5,-2.300003 0.5,-3.900002l0,-0.5c0.099991,-0.599995 0.199997,-1.300003 0.199997,-2.099998l0.300003,-2.4c0,-0.800005 0.099991,-1.800005 0.199997,-3.099998l0,-0.700006l0.199997,-2.199995l0,-0.900003l0.199997,-1c-2.599991,-1.400002 -5.399994,-1.400002 -8.399994,-0.199995l-0.300003,-0.300005c4.899994,-4 10.100006,-5.099998 15.600008,-3.299999c0.099991,0.900002 0,1.899998 -0.300003,3.100002c0.099991,0.500002 0.099991,1 0,1.500002l0,1.4l-0.199999,0.5l0.199999,0.899994c-0.199999,0.600006 -0.300005,1.300005 -0.300005,2.200006c-0.199997,0.699995 -0.300003,1.499998 -0.300003,2.4l-0.199997,1.5c-0.100006,0.699997 -0.199997,1.5 -0.199997,2.399994l-0.199997,2.200005l-0.200012,0.5c0.100006,0.199997 0.100006,0.5 0,0.900002c0.900009,0.299995 1.900009,0.5 3.100006,0.299995c0.199997,-0.799995 0.300005,-1.699997 0.199997,-2.599998c0.199999,-0.800003 0.300003,-1.800003 0.199999,-2.900002l0.200012,-1l0,-1.400002c0.199995,-0.699997 0.299986,-1.5 0.299986,-2.399994l0.200012,-0.9l0.199999,-0.500002l0,-0.900002l0.199995,-1.499998l0.199999,-1c-0.099991,-0.699999 -0.099991,-1.500002 0,-2.400003l0.199995,-1l-0.199995,-1c0.499998,-1.599997 0.600006,-3.399998 0.300001,-5.5l0.5,-1.199997zm-2.199995,31.599998c-0.199999,-0.599998 -0.699997,-1 -1.400011,-1.199997l-2.199997,0.299995c-0.199997,0.800003 -0.300003,1.800003 -0.300003,3.099998l-0.299988,1.200005l0,1.199997l-0.200012,0.900002l-0.199997,2.400002l-0.199997,1l-0.199997,2.900002l-0.199997,0.699997l-0.200012,0.900002l-0.299988,2.699997c-0.600006,1.400002 -1.5,2.5 -2.700012,3.400002l-0.199997,0.300003c0.800003,0.299995 1.699997,0.5 2.699997,0.5l3.600006,0c0.5,-1.400002 0.600008,-3 0.300005,-4.800003c0.099991,-0.300003 0.199995,-0.800003 0.199995,-1.400002c0,-0.599998 0,-1.199997 0.100008,-1.799995c0.099991,-0.600006 0.099991,-1.300003 0.299986,-2l0.200012,-0.700005l0.29999,-2.699997l0.200012,-1l0,-0.700005l0.199995,-0.899994l0.300003,-3.400002l0.199999,-0.900002z" class="st0" id="XMLID_20_"/>
   <path stroke-width="2" d="m55.800018,27.149994c0.400009,0.199997 0.900009,0.5 1.300003,0.900002c0.199997,0.399994 0.399994,0.899994 0.800003,1.299995l0.099991,0.400002c2.400009,3.099998 3.599998,6.800003 3.599998,11.300003c-0.499992,3.799995 -2.299995,7.299995 -5.399986,10.399994l0.099991,1l-0.599991,0.600006c-0.200012,0.399994 -0.600006,0.899994 -1.200012,1.299995c-0.299988,0.400002 -0.599991,0.900002 -1,1.400009l-0.799988,0.5c-0.300003,0 -0.700012,-0.099998 -1,-0.400009c-5.600006,-6 -6.900009,-13 -3.800003,-21.099998c0.399994,-0.900002 1.099991,-1.699997 2,-2.400002l1.899994,-1.799995l0.300003,-0.400002c0.300003,-0.400002 0.800003,-0.800003 1.300003,-1l0.300003,-0.300003c0.5,-0.299995 1.099991,-0.900002 1.799988,-1.5l0.300003,-0.199997zm-0.099991,23.599998c3.100006,-6.699997 1.900009,-13.099998 -3.599991,-19.199997c-2.700012,6 -2,12 2.199997,18c0.299988,0.5 0.799988,0.899994 1.399994,1.199997z" class="st0" id="XMLID_23_"/>
   <path stroke-width="2" d="m74.000015,14.849991c0.599983,-0.199997 0.899994,0 0.800003,0.5c-0.900009,1.5 -1.5,3.400002 -1.800003,5.599998l-0.800003,2.700005l0,0.400005l-0.300003,0.299992l0,0.400002c-0.200005,0.599998 -0.300011,1.300003 -0.399994,2c-0.400009,0.800003 -0.699997,1.699997 -0.800011,2.699997l-0.499992,1.800003l-0.100006,0.800003l0,0.399994c-1.400002,4.300003 -1.500008,8.900002 -0.500008,14l0,0.800003c0.300011,0.400002 0.600014,1 0.600014,1.699997c0.100006,0.300003 0.300003,0.600006 0.499992,1l0.100014,0.400002c0.299988,0.599998 0.599991,1.200005 1,1.800003l0.099991,0.299995l0,0.5c-0.899994,1.400002 -2.300011,2.5 -4.099991,3.500008c-0.5,-0.299995 -0.900009,-0.800003 -1.300003,-1.400002l-0.5,-1.400002l-0.5,-0.800003c-0.199997,-0.599998 -0.300003,-1.099998 -0.5,-1.400002l-0.400017,-1.399994l-0.399986,-1c0,-0.700005 -0.100006,-1.5 -0.300003,-2.300003l0,-1.400002l-0.099991,-0.400002l0,-1.699997l0.099991,-1.400002c0.100006,-0.699997 0.100006,-1.299995 0.100006,-1.799995l0,-0.400002c0.199997,-0.5 0.300003,-1.099998 0.399994,-1.800003l0,-0.799995l0.400009,-0.900002c0.099991,-1.300003 0.399994,-2.900002 0.899986,-5c0.100014,-0.5 0.200005,-0.900002 0.300011,-1.200005c0.099991,-0.299995 0.099991,-0.599998 0.099991,-0.899994l0.300003,-0.400002c0.100006,-0.900002 0.199989,-1.700005 0.400009,-2.200005l0.299988,-1c0.200012,-0.5 0.300003,-1.199997 0.400009,-2c-1.199997,-1.399994 -2.699997,-1.799995 -4.5,-1.399994c-0.199997,0 -0.300011,-0.100006 -0.400017,-0.300003c0.500008,-0.300003 1.100006,-0.599995 1.800011,-1.199997l0.900009,-0.5c1.799988,-0.600006 3.399986,-1.600006 4.899994,-3.100006l0.800003,-0.5l0.300003,-0.299994l0.599991,-0.400003c0.600006,0 1.300018,-0.400002 2.100006,-0.900002z" class="st0" id="XMLID_26_"/>
   <path stroke-width="2" d="m73.000015,43.949989c-0.300011,-7.599998 3.399994,-13.099998 11.099991,-16.599998c0.599998,0 1.300003,0.099998 2,0.300003c0.499992,0 1.100006,0.099998 1.700012,0.299995l0.399994,0.100006c0.499992,0 1.100006,-0.100006 1.800003,-0.400002l0.300003,0.099998l-0.5,0.800003c0,0.299995 -0.100014,0.699997 -0.400009,1l-0.899994,3.199997l-0.100006,0.5c-0.099991,0.900002 -0.199997,1.5 -0.399994,2l0,0.400002c-0.199997,0.900002 -0.300011,1.900002 -0.300011,3.199997l-0.100006,0.5l0,0.800003l-0.099983,0.400002l0,2c-0.100006,0.299995 -0.100006,0.799995 -0.100006,1.299995l0.100006,2.599998l0.099983,0.800003l0.100006,0.400002l0,0.900002l0.600014,2l0.399986,0.5c1.100014,-0.400002 2,-1.400002 2.800011,-2.900002l0.300003,1.299995c-0.400009,0.800003 -1.100014,1.600006 -1.900009,2.400002l-0.800003,0.800003c-0.500008,0.799995 -1.199997,1.5 -2,2.199997c-0.299988,0.400002 -0.599991,0.900009 -1.199997,1.400009l-0.800003,0c-1.599991,-2.800011 -2.299988,-6.000008 -2.199997,-9.600006l-0.300011,-0.800003l-1.399986,2.800003c-0.300003,0.400002 -0.699997,1 -1,1.699997c-0.300003,0.700005 -0.399994,1.300003 -0.500008,1.800003l-1,1.400002l-0.599998,1.199997c-0.500008,0.400002 -0.899994,0.800003 -1,1.199997l-0.299988,0.300011c-0.900009,-0.300011 -1.5,-0.900009 -1.800003,-1.800011c-1.400002,-3.199997 -2.099991,-6.599998 -2,-10.5zm11.800003,-11.599998c-0.699997,-1 -1.800003,-1.5 -3.200005,-1.299995c-0.899986,0.199997 -1.699989,0.599998 -2.399986,1.299995c-2.200012,4.900002 -2.400009,10.400002 -0.600014,16.400002c0.200005,0.300003 0.500008,0.699997 1,1c2.200005,-3.199997 3.500008,-7.099998 3.800011,-11.599998l0.5,-1.900002l0,-0.400002l0.300003,-0.599998l0.099991,-0.900002l0.100006,-0.599998c0.099991,-0.5 0.199989,-1 0.399994,-1.400002z" class="st0" id="XMLID_28_"/>
   <path stroke-width="2" d="m95.500015,27.149994c1.699997,0.699997 2.599991,2.299995 2.699997,4.699997c0.300003,-0.199997 0.699997,-0.400002 1,-0.799995l0.300003,-0.100006c0.300003,-0.399994 0.800003,-0.899994 1.399994,-1.299995l0.300003,-0.300003c0.600006,-0.599998 1.499992,-1.199997 2.600006,-1.900002l0.299988,-0.099998l0.599998,0c1.700005,1.200005 2.700005,3 2.899994,5.400002c0.300011,-0.199997 0.70002,-0.400002 1,-0.800003l0.300011,-0.099998c0.300003,-0.400002 0.799995,-0.900002 1.400009,-1.299995l0.29998,-0.300003c0.600014,-0.599998 1.500008,-1.199997 2.600014,-1.900002l0.300003,-0.099998l0.599991,0c1.300003,1 2.200012,2.400002 2.700012,4.199997l0.099991,3.200005c0,0.799995 -0.099991,1.699997 -0.399994,2.699997l-0.100006,0.800003l0,0.400002l-0.300003,0.899994l-0.099991,0.300003c0,0.900002 -0.199997,1.900002 -0.5,3.199997l-0.100006,2l-0.099991,0.400002c-0.100006,0.900002 0,2 0.29998,3.200005l0,0.799995c0.70002,0.900002 1.400017,0.800003 2.20002,-0.099998c0.099991,0.300003 0.099991,0.599998 0.099991,1c-0.300011,0.300003 -0.899994,1.199997 -1.800003,2.400002l-0.599991,0.799995l-0.100006,0.400002c-0.199997,0.099998 -0.300003,0.200005 -0.5,0.400002c-0.200005,0.199997 -0.300011,0.400002 -0.399994,0.599998l-1,1.200008c-0.300003,0 -0.699997,-0.100006 -1,-0.399994l-1.199997,-2.300014c-0.200012,-0.900002 -0.300003,-1.900002 -0.300003,-3.199997l0,-0.400002c0,-0.400002 0,-0.900002 0.099991,-1.5c-0.099991,-0.5 0,-1.099998 0.100006,-1.699997l0,-1.200005l0.300003,-1l0,-0.400002l0.300003,-0.899994l0.399994,-1.900002l0.100006,-0.300003c0,-0.699997 0,-1.5 0.099991,-2.599998l-0.099991,-0.800003l-0.100006,-2.699997c-0.300003,-1.199997 -1,-2.300003 -1.899994,-3.300003c-0.600014,0.300003 -1.100006,0.800003 -1.5,1.400002l-1.400009,3.800003l-0.099991,1c-0.200012,0.400002 -0.300003,1 -0.300003,1.699997c-0.199997,0.599998 -0.300011,1.200005 -0.300011,1.800003c-0.199989,0.699997 -0.299995,1.599998 -0.299995,2.699997l-0.099991,0.300003l-0.100006,3.799995l0.100006,1.400002c-0.100006,0.800003 0,1.599998 0.399986,2.599998l0,0.400002l-2,2l-0.499992,0.599998c-1,-0.299995 -1.699997,-1.199997 -2.199997,-2.699997c-0.199997,-0.900002 -0.300011,-1.900002 -0.300011,-3.199997l0,-0.400002c0,-0.400002 0,-0.900002 0.100014,-1.5c0,-0.599998 0.099991,-1.400002 0.199997,-2.300003l0,-0.900002c0.099991,-0.099998 0.199997,-0.399994 0.300003,-0.899994l0,-0.400002c0.199997,-0.5 0.29998,-1.200005 0.5,-2.200005l0.299988,-0.899994c-0.099991,-0.600006 0,-1.200005 0.100006,-1.900002l-0.100006,-2.900002c-0.099991,-0.099998 -0.099991,-0.400002 -0.099991,-0.900002c-0.300011,-1.400002 -1,-2.5 -2.300011,-3.299995c-0.499992,0.5 -0.899986,1.199997 -1.299995,2l-0.300003,0.299995l-0.400002,0.599998l-0.799995,2.800003c-0.099991,0.400002 -0.099991,0.900002 -0.099991,1.300003l-0.100014,0.799995l-0.100006,0.900002c-0.099983,0.300003 -0.099983,0.800003 -0.099983,1.300003l-0.300003,1.5l0,0.399994l-0.100006,1.400002l-0.099991,0.5l0,2.300003l0.099991,0.900002l0,1.799995l0.300003,1.400002l0.100006,0.599998c-0.300003,0.400002 -0.900017,0.900002 -1.699997,1.400002l-0.400009,0.599998l-1.5,1.700012l-0.5,0.099998c-0.399994,-1.000008 -0.599991,-2.200012 -0.599991,-3.500008l-0.699997,-1.400002l0,-2c0.199997,-0.599998 0.199997,-1.300003 0.100006,-2.199997l0.099991,-0.300003l0,-0.900002l0.100006,-0.299995c0,-1 0.099991,-2.300003 0.399994,-3.800003l0.100006,-0.599998l0,-0.400002c0,-0.800003 0.099991,-1.800003 0.300003,-3.199997l0,-0.900002l0.099991,-0.400002c0,-1 -0.199997,-2.300003 -0.5,-3.800003l-0.099991,-0.399994l-1,-1.200005c-0.300003,0.300003 -0.700012,0.300003 -1.200012,0.300003c0.800003,-0.900002 1.900009,-1.800003 3.300003,-2.800003c0.199997,-0.299995 0.5,-0.5 0.900009,-0.799995l0.399994,-0.100006l0.399994,-0.299995z" class="st0" id="XMLID_31_"/>
   <path stroke-width="2" d="m126.800034,14.849991c0.399994,0.099998 0.5,0.300005 0.299988,0.599998c-0.299988,0.800005 -0.599976,1.700006 -0.799988,2.800005l-0.100006,0.900002l-0.100006,0.4l-0.299988,1.299995l0,0.400002l-0.299988,0.5l0,0.900002c-0.200012,0.400002 -0.300018,0.900002 -0.300018,1.400005l-0.100006,0.999996c0,0.399994 -0.099991,1 -0.299988,1.699997l-0.100006,2.300003l-0.099991,1.399994l-0.100006,0.800003c0.699997,-0.300003 1.300003,-0.900002 1.900009,-1.5l0.699982,-0.5l0.299988,-0.300003l1.400024,-1c0.699982,-0.399994 1.199982,-0.699997 1.699982,-0.799995c2.100006,2.299995 3.399994,5.199997 3.700012,8.699997l-0.300018,1.5l-0.099976,0.400002c-0.300018,5.800003 -3,10.699997 -8.100006,14.699997l-1.900009,2.800003c-0.300003,0.300003 -0.5,0.599998 -0.599991,0.800011c-1.200012,-0.300003 -2.200012,-1.100014 -3.100006,-2.300011l-1.300003,-3.099998l-0.099991,-0.599998c-0.100006,-0.700005 -0.200012,-1.300003 -0.400009,-1.800003l0,-3.199997c0.100006,-0.300003 0.100006,-0.600006 0.100006,-1l0.099991,-0.400002l0.100006,-1.400002l0,-1.199997l0.100006,-0.5l0.099991,-1c0.199997,-0.400002 0.300003,-1 0.300003,-1.700005l0.100006,-1c0.099991,-0.099998 0.099991,-0.299995 0.099991,-0.5c0,-0.799995 0.100006,-1.799995 0.400009,-3.199997c0,-0.599998 0,-1.300003 0.099991,-2c0,-0.700005 0.100006,-1.599998 0.199997,-2.599998l0.100006,-0.300003l0.100006,-1.400002l0,-0.900002l0.299988,-1l0.100006,-0.799995c-0.399994,-1.599998 -1.5,-2.599998 -3.300003,-2.900002l0,-0.400002c0.400009,-0.299995 1,-0.599997 1.699997,-0.900002l0.5,-0.5l1,-0.599998l0.800003,-0.299995c0.400009,-0.4 0.699997,-0.700005 0.900009,-0.800003s0.299988,-0.199997 0.5,-0.300003l3.299988,-2.199995l0.800018,-0.400003zm-0.900024,36.800003c4.799988,-6.800003 5,-13.5 0.600006,-20.099998c-2.600006,3.899994 -3.800003,8.5 -3.699997,13.799995l0.799988,2.900002l0.400009,0.900002c0.399994,0.799995 1,1.5 1.699982,2.199997l0.200012,0.300003z" class="st0" id="XMLID_33_"/>
   <path stroke-width="2" d="m141.700027,28.649994c0.300018,-0.300003 0.600006,-0.400002 0.800018,-0.5c0.799988,-0.200005 1.099976,0.099998 1,0.900002c-0.300018,1 -0.600006,2.299995 -0.600006,3.799995l-0.100006,0.800003l-0.299988,1.400002l0,0.5l-0.100006,0.5c-0.300018,0.899994 -0.399994,1.799995 -0.399994,2.899994l-0.100006,1l-0.100006,0.600006c0.100006,0.899994 0,1.799995 -0.299988,2.899994l0,5.600006l0.799988,2c0.799988,0.399994 1.399994,0.199997 1.899994,-0.600006l0.300018,0.400002c-0.400024,0.700005 -1,1.300003 -1.800018,1.800003l-1.399994,1.299995l-0.299988,0.100006c-0.300018,0.299995 -0.600006,0.699997 -1,1l-0.900024,0.5l-0.799988,0.299995c-0.799988,-0.900002 -1.200012,-2.099998 -1.299988,-3.5l-0.300018,-0.299995l-0.100006,-2l0.100006,-0.300003l-0.100006,-0.5l0,-1.800003l0.100006,-1.399994l0.100006,-0.900002l0.100006,-0.800003l0,-0.099998l0.100006,-1.400002l0.099976,-0.400002l0.300018,-1.899994l0,-0.400002l0.5,-3.800003l0,-0.400002l0.100006,-1.399994l-0.100006,-0.800003c-0.700012,-0.400002 -1.600006,-0.599998 -2.700012,-0.5c0.700012,-0.800003 1.700012,-1.5 2.899994,-2.199997l0.300018,-0.100006c0.699982,-0.799995 1.600006,-1.399994 2.699982,-1.899994l0.600006,-0.400002zm-2.300018,-4c1.600006,-2.300003 3.799988,-4 6.5,-5c0.299988,-0.099998 0.600006,0 0.600006,0.400002c-0.700012,1 -1.700012,2 -3.100006,2.799995l-2.700012,1.900002l-0.599976,0.5l-1,0.599998l-0.800018,0.400002c-0.299988,0.199997 -0.799988,0.300003 -1.399994,0.400002l2,-1.800003l0.5,-0.199997z" class="st0" id="XMLID_36_"/>
   <path stroke-width="2" d="m154.200027,28.249992l1,0c1.5,0.900002 2.200012,2.199997 2.200012,4.099998c-1.700012,3 -4.300018,5.599998 -7.800018,7.800003l-0.599976,0.900002l0.099976,0.899994c-0.099976,1.200005 0.100006,2.5 0.5,3.800003c0.100006,0.900002 0.300018,1.699997 0.5,2.199997c0.100006,0.400002 0.300018,0.900002 0.5,1.5l0,0.400002c0.200012,0.300003 0.400024,0.700005 0.800018,1c1.299988,-0.900002 2.299988,-2.299995 2.899994,-4l0.600006,0c0,0.400002 -0.100006,0.900002 -0.300018,1.400002c-0.5,0.599998 -1,1.400002 -1.5,2.300003l-1.399994,1.699997l-0.299988,0.400002l-1.399994,1.299995l-1.700012,2l-0.600006,0.100014c-2.199982,-3.600014 -3.299988,-7.800011 -3.199982,-12.700012l-0.400024,-0.799995c0.200012,-0.300003 0.300018,-0.600006 0.5,-1c0.200012,-2.800003 1.100006,-5.5 2.700012,-8.200005c0.399994,-0.400002 1,-0.900002 1.700012,-1.299995l1.699982,-1.5l0.399994,-0.100006l0.800018,-0.599998c0.199982,-0.099998 0.299988,-0.299995 0.5,-0.5l1.799988,-1.099998zm-4.399994,11.099998c3.899994,-2.5 4.299988,-4.900002 1,-7.400002c-1.100006,2.100006 -1.700012,4.700005 -1.799988,7.600006l0.799988,-0.200005z" class="st0" id="XMLID_39_"/>
   <path stroke-width="2" d="m161.700027,26.949989c1.700012,0.700005 2.600006,2.300003 2.700012,4.700005l0.5,-0.300003c0.399994,-0.5 1.100006,-1.099998 2,-1.799995l0.5,-0.5l0.799988,-0.600006l0.800018,-0.599998l0.5,-0.299995l0.5,-0.400002l0.799988,0c0.899994,1.299995 2,1.5 3.200012,0.5c-1,3.199997 -3.5,4.400002 -7.400024,3.599998l-1.299988,1.5c-2.399994,5.900002 -3.100006,12.400002 -2,19.5c-0.299988,0.400002 -0.899994,0.900002 -1.700012,1.400002l-0.399994,0.599998l-1.5,1.699997l-0.5,0.100014c-0.299988,-0.800011 -0.600006,-1.600014 -0.600006,-2.600014l-0.099976,-1l0,-2.799995l0.099976,-0.900002c0,-0.5 0,-1 0.100006,-1.599998c0,-0.599998 0.100006,-1.200005 0.300018,-1.900002l0,-0.5l0.299988,-2.800003l0,-0.799995l0.100006,-0.599998c0.100006,-0.600006 0.100006,-1.300003 0.100006,-2l0.099976,-0.600006l0,-4.599998c-0.299988,-0.900002 -0.899994,-1.699997 -1.699982,-2.599998c-0.300018,0.300003 -0.700012,0.300003 -1.200012,0.300003c0.800018,-0.900002 1.899994,-1.800003 3.300018,-2.800003c0.199982,-0.300003 0.5,-0.5 0.899994,-0.800003l0.399994,-0.099998l0.399994,-0.400002z" class="st0" id="XMLID_42_"/>
   <path stroke-width="2" d="m203.200027,3.149994c0.100006,-1.200001 0.200012,-2.200001 0.200012,-3c0.299988,0.899998 0.399994,1.799999 0.199982,2.799999c0.300018,0 0.700012,0.099999 1,0.3c-0.899994,1.2 -1.199982,2.599998 -1,4.099998l0.5,0.5c5.400024,-0.099998 9.400024,2 12,6.300005c1.300018,4.599997 -1.899994,9.299994 -9.599976,13.999998c8.899994,1.299995 13.199982,5.799995 12.899994,13.400002c-0.300018,1.699997 -1.200012,3.5 -2.5,5.399994l-0.700012,1.200005c-0.600006,0.599998 -1.299988,1.199997 -2.299988,1.799995l-0.700012,0.700005l-0.799988,0.5l-3.100006,2.099998l-0.5,0.199997l-1,0.700005l-3.799988,1.5c-0.300018,0 -0.800018,0.199997 -1.300018,0.500008l-0.5,2.799992l0,0.700012l-0.199982,0.5c-0.100006,-0.800003 -0.100006,-1.700005 0,-2.599998c0,-0.600014 -0.100006,-0.900002 -0.200012,-1.200008l-1.200012,0c-1.5,0.300007 -4.099976,0.200008 -7.799988,-0.500008l-1.299988,-0.199997c-0.900024,-0.300003 -1.900024,-0.599998 -3.100006,-0.700005l-0.5,-0.199997l-1,0c0.799988,-1.199997 2,-2.300003 3.600006,-3.099998c0.399994,-0.200005 0.899994,-0.599998 1.5,-1.200005c0,-0.299995 0.099976,-0.699997 0.299988,-1.199997l0.200012,-1.300003c0.099976,-0.699997 0.199982,-1.199997 0.199982,-1.699997l0.200012,-0.699997l0.199982,-0.300003l0,-2.599998l0.200012,-0.5l0,-1.800003c0.100006,-1.099998 0.200012,-2.099998 0.299988,-3l0.200012,-1.5c-0.700012,-1.299995 -2.100006,-2.199997 -4.5,-2.599998c0.399994,-0.599998 1.100006,-1.199997 2,-1.800003l1,-0.799995c0.600006,-0.599998 1,-1.099998 1.299988,-1.700005c0.400024,-1.299995 0.600006,-2.899994 0.300018,-4.599998c0,-0.799995 0.100006,-1.799995 0.199982,-3l0,-1l-0.199982,-0.5l0.299988,-3l0.200012,-0.799995l0,-0.5l0.5,-2.800003l-0.5,-0.800003c-9,0.700005 -13.600006,5.5 -13.700012,14.5l-2.799988,-0.199997c-0.300018,-0.599998 -0.5,-1.199997 -0.5,-2c1.5,-4.900002 4.899994,-8.800003 10.100006,-11.5c1,-1 2.299988,-1.800003 3.799988,-2.300003c0.399994,-0.299994 1,-0.699997 1.700012,-1c1.099976,-0.599998 2.5,-1 4.099976,-1.299994c0.100006,-0.100004 0.300018,-0.200001 0.700012,-0.300005l3.100006,-2.799998l1,-0.500001c0.499969,-0.2 0.899994,-0.7 1.299988,-1.399998zm-1,30c-0.399994,-0.599998 -1,-0.800003 -1.799988,-0.800003c-0.300018,0.200005 -0.600006,0.599998 -0.800018,1c0.100006,6 -1.699982,11.700005 -5.399994,17c0.800018,0.300003 1.700012,0.599998 2.600006,0.700005l2.299988,0.699997l0.5,0l2.5,0.699997c0.200012,-1.099998 0.300018,-2.5 0.200012,-4.099998c0.100006,-0.099998 0.200012,-0.299995 0.200012,-0.699997l0,-2.400002l-0.200012,-1.800003l0,-6.099998c-0.200012,-0.699997 -0.200012,-1.400002 0,-2.099998l-0.200012,-0.800003l0.100006,-1.299995zm0.399994,-20.300003c-0.299988,-0.199997 -0.799988,-0.299995 -1.299988,-0.299995c-0.200012,0.099998 -0.400024,0.299995 -0.700012,0.699999l-0.200012,4.800001l-0.199982,0.699997l0,2.599998c0.100006,0.300003 0.199982,0.800007 0.199982,1.300003l-0.199982,1l0,2l-0.200012,2.299995l-0.199982,0.5l0,1.700005c-0.100006,0.099998 -0.200012,0.299995 -0.200012,0.699997l0.299988,0.5c0.700012,-0.299995 1.300018,-0.799995 2,-1.5l0,-4.299995l0.200012,-0.5l0,-3l0.200012,-1.800001l0,-2.300005c0.099976,-0.099998 0.199982,-0.299995 0.199982,-0.699995l0,-2.6l0.200012,-0.800003l-0.100006,-1zm-0.200012,-5.399998c0.399994,-0.600002 0.5,-1.199999 0.200012,-1.799999c-0.899994,0.899998 -1,1.5 -0.200012,1.799999zm10.900024,37.799999c0.399994,-6.599998 -2.899994,-10.699997 -10.100006,-12.400002l-0.299988,0.300003l-0.300018,19c6,1.699997 9.600006,-0.700005 10.700012,-6.900002zm-2.600006,-24.800003c-0.299988,-3.5 -2.5,-6 -6.399994,-7.399994c-0.399994,0.299995 -0.700012,0.899994 -0.799988,1.699997l-0.200012,3.300003l-0.299988,1.199999l0.199982,0.499998l0,1.300003c-0.100006,0.699997 -0.199982,1.399994 -0.199982,2.199997c-0.100006,0.800007 0,1.699997 0.099976,2.699997l-0.199982,0.5l0.199982,0.300003c-0.099976,0.400002 -0.199982,1 -0.199982,1.699997l0.199982,0.800003c0.700012,-0.199997 1.300018,-0.5 2,-1c3.399994,-1.300003 5.299988,-3.900002 5.600006,-7.800003z" class="st0" id="XMLID_44_"/>
   <path stroke-width="2" d="m225.800034,27.949989c1.700012,0.700005 2.600006,2.300003 2.700012,4.700005l0.5,-0.300003c0.399994,-0.5 1.099976,-1.099998 2,-1.799995l0.5,-0.5l0.799988,-0.600006l0.799988,-0.599998l0.5,-0.299995l0.5,-0.300003l0.799988,0c0.900024,1.300003 2,1.5 3.200012,0.5c-1,3.199997 -3.5,4.400002 -7.399994,3.599998l-1.300018,1.5c-2.399994,5.900002 -3.099976,12.400002 -2,19.5c-0.299988,0.400002 -0.899994,0.900002 -1.699982,1.400002l-0.399994,0.599998l-1.5,1.700008l-0.5,0.100006c-0.300018,-0.800007 -0.600006,-1.60001 -0.600006,-2.60001l-0.100006,-1l0,-2.800003l0.100006,-0.900002c0,-0.5 0,-1 0.100006,-1.599998c0,-0.599998 0.099976,-1.199997 0.299988,-1.900002l0,-0.5l0.299988,-2.799995l0,-0.800003l0.100006,-0.599998c0.100006,-0.599998 0.100006,-1.300003 0.100006,-2l0.100006,-0.599998l0,-4.600006c-0.300018,-0.899994 -0.899994,-1.699997 -1.700012,-2.599998c-0.299988,0.300003 -0.699982,0.300003 -1.199982,0.300003c0.799988,-0.900002 1.899994,-1.800003 3.299988,-2.800003c0.200012,-0.299995 0.5,-0.5 0.899994,-0.799995l0.399994,-0.100006l0.400024,-0.5z" class="st0" id="XMLID_51_"/>
   <path stroke-width="2" d="m245.800034,28.149994c0.399979,0.199997 0.899979,0.5 1.299973,0.900002c0.200043,0.399994 0.400055,0.899994 0.800018,1.299995l0.100037,0.400002c2.399963,3.099998 3.599945,6.800003 3.599945,11.300003c-0.5,3.799995 -2.299957,7.299995 -5.399994,10.399994l0.100037,1l-0.600021,0.600006c-0.199982,0.399994 -0.600006,0.899994 -1.199982,1.299995c-0.300018,0.400009 -0.600006,0.900009 -1,1.400005l-0.800018,0.5c-0.299988,0 -0.699982,-0.099991 -1,-0.399994c-5.600006,-6.000011 -6.899994,-13.000011 -3.799988,-21.10001c0.399994,-0.900002 1.100006,-1.699997 2,-2.400002l1.899994,-1.799995l0.299988,-0.400002c0.300018,-0.400002 0.800018,-0.800003 1.300018,-1l0.299988,-0.300003c0.5,-0.299995 1.100006,-0.900002 1.800018,-1.5l0.299988,-0.199997zm-0.100006,23.599998c3.099991,-6.699997 1.900009,-13.099998 -3.600006,-19.199997c-2.699982,6 -2,12 2.200012,18c0.299988,0.5 0.799988,0.899994 1.399994,1.199997z" class="st0" id="XMLID_53_"/>
   <path stroke-width="2" d="m268.199982,27.949989c0.300049,0.300003 0.600037,0.900002 0.800018,1.5c0,0.600006 0.100006,1.400002 0.299988,2.300003l0,0.900002l0.100037,0.400002l-0.300018,5.199997l-0.100006,0.5l0,1l-0.800018,7.199997l0,0.800003c-0.099976,0.5 -0.099976,0.900002 -0.099976,1.300003c0,0.299995 0.099976,0.799995 0.199982,1.399994l0.100037,0.900002c0.299988,0.599998 0.699982,1.200005 1.299988,1.900002c0.299988,-0.300003 0.700012,-0.300003 1.200012,-0.300003c-0.399994,0.600006 -1.100006,1.200005 -1.900024,1.700005c-0.899994,1 -2,1.800003 -3.599976,2.400005c-1.300018,-0.999996 -1.899994,-2.500004 -1.899994,-4.400005l-0.400024,-0.400002c-0.399994,0.300003 -0.900024,0.599998 -1.299988,1.199997l-0.399994,0.300003c-0.400024,0.400002 -0.700012,0.699997 -0.899994,0.800003c-0.700012,0.799995 -1.600006,1.500008 -2.700012,2.000011l-0.299988,0.299995l-0.800018,0c-0.600006,-0.400005 -1.199982,-1.000011 -1.699982,-1.800007l-0.300018,-0.300003c-1.100006,-3 -1.199982,-6.300003 -0.100006,-9.900002c0,-0.400002 0.100006,-1 0.300018,-1.699997l-0.100006,-0.300003l0.399994,-0.599998c0,-0.599998 0,-1.300003 0.100006,-2c0.100006,-0.300003 0.100006,-0.599998 0.100006,-1l0.100006,-0.400002l0,-2.599998c-0.300018,-2.099998 -1.100006,-2.599998 -2.400024,-1.300003c-0.099976,-0.299995 -0.099976,-0.599998 -0.099976,-1c0.299988,-0.299995 0.899994,-1.199997 1.799988,-2.399994l0.600006,-0.800003l0.100006,-0.400002c0.199982,-0.099998 0.299988,-0.199997 0.499969,-0.400002c0.199982,-0.199997 0.299988,-0.399994 0.400024,-0.599998l1,-1.199997c1,0.299995 1.699982,1.199997 2.199982,2.699997c0.200012,0.900002 0.200012,2.599998 0.100006,5.099998c0.100006,0.5 0,1.100006 -0.100006,1.700005l0,1.199997l-0.300018,1l0,0.400002l-0.299988,0.900002l-0.399994,1.900002l-0.099976,0.299995l-0.100006,2.800003l0.100006,0.799995l0,1.5l0.099976,0.300003l0.100006,1c0.299988,1.300003 1.100006,2.300003 2.200012,2.900002c0.5,-0.5 0.899994,-1.200005 1.299957,-2l0.300049,-0.300003l0.399994,-0.599998l0.799988,-2.800003c0.100006,-0.399994 0.100006,-0.699997 0.100006,-0.899994c0,-0.5 0.100006,-1.100006 0.299988,-1.800003l0.099976,-1.400002l0.100006,-0.900002c0.100037,-0.099998 0.100037,-0.299995 0.100037,-0.5c-0.100037,-0.699997 0,-1.5 0.299988,-2.399994l0,-0.5c0.100006,-0.800003 0,-1.700005 -0.100006,-2.800003l0,-1.699997l-0.400024,-2l0.100006,-0.400002c0.800018,-0.400002 1.500031,-1.099998 2,-1.900002l0.500031,-0.400002c0.100006,-0.299995 0.299988,-0.599998 0.799988,-1l0.599976,-0.400002z" class="st0" id="XMLID_56_"/>
   <path stroke-width="2" d="m272.600006,29.149994c0.599976,-1 1.599976,-1.900002 2.799957,-2.5c0.600006,-0.099998 1.200043,0 1.900024,0.199997c0.600006,0.599998 1.199982,1.400002 1.699982,2.5l0.700043,2.200005c0.100006,0.299995 0.199982,0.699997 0.399994,1.099998l0.099976,0.599998l0.100006,0.900002l0.300018,1l0.100006,1.5c0,0.299995 0,0.599998 0.100006,1l0.299988,2.599998l0.099976,0.900002l0.100006,0.299995l0,0.600006l0.099976,0.699997l0.100006,0.400002l0,1.099998l0.100037,0.599998l0,1.200005l0.100006,0.699997l0.100006,0.400002l0,0.900002l0.099976,0.299995l0.800018,-2.099998c0.100006,-0.400002 0.399994,-1 0.699951,-1.5c0.100006,-0.300003 0.200043,-0.699997 0.400055,-1.099998c0.199951,-0.300003 0.299988,-0.599998 0.399963,-1l0.299988,-0.800003l0.100037,-0.400002l0.699982,-2c0.199982,-0.299995 0.400024,-0.699997 0.600006,-1.199997c0.099976,-0.400002 0.299988,-0.800003 0.599976,-1.300003l0.300049,-0.599998c-0.400055,-2 -1.400055,-3.799995 -3,-5.400002c-0.300049,0.100006 -0.700012,0.200005 -1.200012,0.200005l0,-1c2.799957,-3.599998 5.200012,-3.800003 7.200012,-0.700005l0.099976,0c0.200012,0 0.399994,0.100006 0.499969,0.200005c-0.099976,0.400002 0,1 0.100006,1.699997c0.300049,0.5 0.5,1.099998 0.600037,1.800003l0.099976,0.199997l0.199982,0.800003c0,0.400002 0.100006,0.799995 0.200043,1.199997c0.100006,0.200005 0.100006,0.400002 0.100006,0.800003l0.199982,1c0.099976,0.400002 0.099976,0.799995 0.099976,1.299995l0.200012,1l0.100006,1.200005l0.199982,1l0.100037,0.699997l0,2.400002l0.100006,0.300003l0.100006,3.699997l0.099976,0.400002c0.200012,-0.400002 0.499969,-1 1,-1.700005l0.200012,-0.5l1.600006,-2.699997l0.100006,-0.300003c3.799988,-7.399994 3.199951,-11.799995 -1.800049,-13.199997c-0.299957,0.099998 -0.699982,0.099998 -1.199951,0.099998l0,-1.099998c2.399963,-2.900002 5.199951,-3.300003 8.299988,-1.099998c0.399963,0.5 0.700012,1.199997 1,2.099998l0.199982,0.400002c0.199982,4.699997 -1.399994,9.199997 -4.699982,13.5l-0.600037,1.099998c-0.199951,0.400002 -0.5,0.800003 -0.899963,1.300003l-0.399994,0.5c-0.300049,0.5 -0.500031,1 -0.899994,1.299995c-0.100006,0.400002 -0.400055,0.900002 -0.700012,1.400002l-3.5,5.900009l-0.200043,0.500004c-0.399994,0.299988 -1,0.299988 -1.499969,0.199997c0,-0.400005 0,-1.000011 0.099976,-1.700008l-0.099976,-0.599998l0,-2.900002c-0.199982,-1.200005 -0.299988,-2.300003 -0.299988,-3.300003c-0.100037,-0.599998 -0.100037,-1.199997 -0.200043,-1.900002l-0.099976,-0.5l-0.100006,-1.5c0,-0.399994 -0.099976,-1 -0.200012,-1.5l-0.099976,-0.5l-0.099976,-0.699997l-0.100006,-0.800003l0,-0.599998l-0.200043,-0.799995l0,-0.300003l-0.199982,-0.400002c-0.100006,0.300003 -0.199982,0.700005 -0.399994,1.200005l-0.299988,0.799995c-0.100037,0.300003 -0.200043,0.5 -0.200043,0.700005l-0.199982,0.299995l-0.099976,0.400002c-0.5,1 -0.900024,1.900002 -1.100037,2.699997c-0.299957,0.5 -0.5,1.200005 -0.699982,2c-0.100006,0.300003 -0.300018,0.600006 -0.399994,0.800003c0,0.400002 -0.199982,1 -0.500031,1.5l-0.299957,0.5l-0.100037,0.599998l-0.899963,2.300003l-0.299988,0.599998l-0.300049,0.599998c-0.100006,0.200005 -0.199982,0.400002 -0.299988,0.800003l-1.399963,2.400005c-0.300049,0.199997 -0.700012,0.300003 -1.200012,0.300003l-0.300018,-3.500011c-0.199982,-1 -0.300018,-1.799995 -0.399994,-2.599998l0,-0.599998l-0.099976,-0.5l-0.400055,-3.200005c-0.099976,-0.399994 -0.099976,-0.699997 -0.099976,-1l-0.100006,-0.399994c0,-0.600006 -0.099976,-1.200005 -0.299988,-1.900002l0,-0.599998l-0.299988,-2.100006l-0.200043,-0.699997c0,-0.400002 -0.099976,-1 -0.199982,-1.699997l0,-0.300003c-0.099976,-0.5 -0.200012,-1.199997 -0.499969,-1.900002l0,-0.299995c-0.100006,-0.100006 -0.100006,-0.200005 -0.100006,-0.400002l-0.5,-2.400002l-0.299988,-0.699997l-1.100006,-1.600006l-0.400024,-0.299995c-1.699982,1.799995 -2.499969,1.900002 -2.399994,0.299995c0.399994,-0.599998 1,-1.199997 1.700012,-1.799995z" class="st0" id="XMLID_58_"/>
   <path stroke-width="2" d="m312.399963,29.249992l1,0c1.500031,0.900002 2.200043,2.199997 2.200043,4.099998c-1.700012,3 -4.300018,5.599998 -7.800018,7.800003l-0.600037,0.900002l0.100037,0.899994c-0.100037,1.200005 0.099976,2.5 0.5,3.800003c0.100006,0.900002 0.300018,1.699997 0.5,2.199997c0.099976,0.400002 0.300018,0.900002 0.5,1.5l0,0.400002c0.199982,0.300003 0.399963,0.700005 0.800018,1c1.299988,-0.900002 2.299988,-2.299995 2.899963,-4l0.600037,0c0,0.400002 -0.100037,0.900002 -0.300018,1.400002c-0.5,0.599998 -1,1.400002 -1.5,2.300003l-1.399994,1.699997l-0.299988,0.400002l-1.400055,1.299995l-1.699982,2.000004l-0.599976,0.100006c-2.200012,-3.60001 -3.299988,-7.800007 -3.200012,-12.700008l-0.399994,-0.799995c0.199982,-0.300003 0.300018,-0.600006 0.5,-1c0.199982,-2.800003 1.100006,-5.5 2.699982,-8.200005c0.400024,-0.400002 1,-0.900002 1.699982,-1.299995l1.700043,-1.5l0.399994,-0.100006l0.800018,-0.599998c0.199982,-0.099998 0.299957,-0.299995 0.5,-0.5l1.799957,-1.099998zm-4.399994,11.099998c3.900024,-2.5 4.300018,-4.900002 1,-7.400002c-1.099976,2.100006 -1.699982,4.700005 -1.800018,7.600006l0.800018,-0.200005z" class="st0" id="XMLID_60_"/>
   <path stroke-width="2" d="m319.899994,27.949989c1.700012,0.700005 2.599976,2.300003 2.700012,4.700005l0.5,-0.300003c0.399963,-0.5 1.099945,-1.099998 2,-1.799995l0.5,-0.5l0.799957,-0.600006l0.799988,-0.599998l0.500031,-0.299995l0.499969,-0.400002l0.800018,0c0.900024,1.299995 2,1.5 3.199982,0.5c-1,3.199997 -3.499969,4.400002 -7.399963,3.599998l-1.300018,1.5c-2.399963,5.900002 -3.100006,12.400002 -2,19.5c-0.300018,0.400002 -0.899963,0.900002 -1.699982,1.400002l-0.400024,0.599998l-1.499969,1.700001l-0.500031,0.100006c-0.299957,-0.799999 -0.599976,-1.60001 -0.599976,-2.60001l-0.100006,-1l0,-2.799995l0.100006,-0.900002c0,-0.5 0,-1 0.100006,-1.599998c0,-0.599998 0.099976,-1.200005 0.299957,-1.900002l0,-0.5l0.300018,-2.800003l0,-0.799995l0.100037,-0.599998c0.099976,-0.600006 0.099976,-1.300003 0.099976,-2l0.100006,-0.600006l0,-4.599998c-0.300018,-0.900002 -0.899994,-1.699997 -1.699982,-2.599998c-0.300018,0.300003 -0.700043,0.300003 -1.200012,0.300003c0.799988,-0.900002 1.899994,-1.800003 3.299957,-2.800003c0.200012,-0.300003 0.500031,-0.5 0.900055,-0.800003l0.399963,-0.099998l0.400024,-0.400002z" class="st0" id="XMLID_63_"/>
   <path stroke-width="2" d="m335.399963,29.649994c0.300018,-0.300003 0.600006,-0.400002 0.799988,-0.5c0.800018,-0.200005 1.100037,0.099998 1,0.900002c-0.299957,1 -0.599945,2.299995 -0.599945,3.799995l-0.100037,0.800003l-0.300018,1.400002l0,0.5l-0.099945,0.5c-0.300018,0.899994 -0.400024,1.799995 -0.400024,2.899994l-0.099976,1l-0.100037,0.600006c0.100037,0.899994 0,1.799995 -0.300018,2.899994l0,5.600006l0.800018,2c0.800018,0.399994 1.399994,0.199997 1.900024,-0.600006l0.299957,0.400002c-0.399963,0.700005 -1,1.300003 -1.799988,1.800003l-1.399994,1.299995l-0.299988,0.100006c-0.300018,0.299995 -0.599976,0.700005 -1,1.000008l-0.899994,0.500004l-0.800018,0.299995c-0.800018,-0.900013 -1.199982,-2.10001 -1.299988,-3.500011l-0.300018,-0.299995l-0.099976,-2l0.099976,-0.300003l-0.099976,-0.5l0,-1.800003l0.099976,-1.399994l0.100006,-0.900002l0.100037,-0.800003l0,-0.099998l0.099976,-1.400002l0.100006,-0.400002l0.300018,-1.899994l0,-0.400002l0.5,-3.800003l0,-0.400002l0.099976,-1.399994l-0.099976,-0.800003c-0.700012,-0.400002 -1.600037,-0.599998 -2.700012,-0.5c0.700012,-0.800003 1.700012,-1.5 2.899994,-2.199997l0.300018,-0.100006c0.699982,-0.799995 1.599976,-1.399994 2.699982,-1.899994l0.599976,-0.400002zm-2.299957,-4c1.600006,-2.300003 3.799988,-4 6.5,-5c0.299988,-0.099998 0.599976,0 0.599976,0.400002c-0.700012,1 -1.700012,2 -3.099976,2.799995l-2.700043,1.900002l-0.599945,0.5l-1,0.599998l-0.800049,0.400002c-0.299957,0.199997 -0.799988,0.300003 -1.399963,0.400002l2,-1.800003l0.5,-0.199997z" class="st0" id="XMLID_65_"/>
   <path stroke-width="2" d="m345.399963,29.049995c0.400024,0.099998 0.700043,0.299995 0.799988,0.5c-0.299957,0.699997 -0.399963,1.5 -0.499969,2.299995l-0.099976,0.900002l-0.100037,1l-0.100006,0.400002l-0.099976,1.400002l-0.100037,0.899994l-0.099945,1l-0.300018,0.800003l-0.100006,0.599998l0.100006,0.5l-0.100006,0.599998l-0.099976,0.5l-0.100037,2.600006l-0.100006,0.399994l-0.099976,1.400002c-0.100037,0.300003 -0.100037,0.599998 -0.100037,1l-0.099945,0.400002l-0.300018,3.699997l-0.100006,0.400002l0,0.900002l-0.099976,0.400002l-0.100037,2.400002c-0.100006,0.099998 -0.100006,0.299995 -0.100006,0.5l-0.099976,1.399994l-0.100037,1.000004l-0.099945,1.400009c0,0.599991 -0.100037,1.300003 -0.300018,2l-0.100006,1.399994c-0.099976,0.300003 -0.099976,0.800011 -0.099976,1.300003c-0.300018,0.799988 -0.400055,1.700001 -0.400055,2.799992c-0.299957,0.300018 -0.499969,0.800018 -0.599945,1.300018l-0.400055,0.899994l-0.599945,1c-0.600037,0.600006 -1.400055,1.199997 -2.300018,1.899994l-1.900024,1.200012l-0.399994,0.399994l-2.299988,1.199997c-0.599976,0.399994 -1.200012,0.800003 -1.899994,1l-0.300018,0.100006c-0.599976,-0.100006 -1.199982,-0.300003 -1.899963,-0.600006l-3.800018,-1.800003l-0.400024,-0.099991c-0.299957,-0.300003 -0.899994,-0.699997 -1.499969,-1c-0.299988,-0.300003 -0.500031,-0.800003 -0.799988,-1.400009c0,-0.5 0,-1.100006 0.099945,-1.799988c1.300018,-2.200012 3.200012,-4.100006 5.600037,-5.800007c0.599976,-0.600006 1.5,-1.300003 2.699982,-2.199997c0,0.299995 -0.199982,0.699997 -0.5,1c-5.5,4.399998 -3.800018,7.799992 4.900024,10.200001l0.599976,-0.500015c0.400024,-1 0.699982,-2.199982 0.800018,-3.499985l0.300018,-0.800003l0.099976,-0.300003c0,-1 0.100006,-2.300007 0.400024,-3.799999c0.099945,-0.700005 0.099945,-1.299995 0.099945,-1.899994l0.400055,-2.200005l0.099976,-0.400009l0,-0.899994c0.299988,-0.899998 0.400024,-1.60001 0.400024,-2.300007c0.099945,-0.5 0.199982,-0.900002 0.299957,-1.199997l0,-1.400002l0.300018,-0.800003l0.100006,-0.799995c0,-0.700005 0,-1.5 0.100006,-2.600006c0.099976,-0.899994 0.200012,-1.699997 0.299957,-2.299995l0,-0.5c0,-0.599998 0.100037,-1.300003 0.300018,-2c0,-0.5 0.100037,-1.099998 0.300018,-1.700005l0,-0.899994l0.300018,-0.800003c0,-0.400002 0,-1 0.099945,-1.699997l0.300018,-2.600006l-0.100006,-1c-0.599976,-0.599998 -1.399994,-0.799995 -2.299957,-0.5l-0.100037,-0.299995c0.800018,-0.900002 1.800018,-1.599998 3.100037,-2.300003c0.399963,-0.5 1.099945,-1 1.899963,-1.400002l1.900024,-1.299995l-0.500031,0.400002zm-10.199982,27.700001c0.300049,0 0.300049,0.100006 0.100006,0.400009l-1.899963,1.699997l-0.600006,0.599998c-0.500031,0.299995 -0.899994,0.599998 -1.299988,0.599998c0.599976,-0.800003 1.399994,-1.499992 2.399994,-2.199997l1.299957,-1.100006zm13.500031,-36.100002l0.499969,0.299995c-2.399963,3.10001 -5.599976,5.400002 -9.699951,6.900002l1.499969,-1.400002c0.500031,-0.299995 1,-0.799995 1.500031,-1.399994l0.299988,-0.100006c0.299988,-0.299995 0.600006,-0.799995 0.899994,-1.299995l1.200012,-1.200005l2.600006,-1.399994l1,-0.300003l0.199982,-0.099998z" class="st0" id="XMLID_68_"/>
  </g>
 </g>
</svg>